<?xml version="1.0" encoding="UTF-8" standalone="no"?>
<!-- Generator: Adobe Illustrator 15.0.2, SVG Export Plug-In . SVG Version: 6.00 Build 0)  -->

<svg
   version="1.1"
   id="Ebene_1"
   x="0px"
   y="0px"
   width="177.94716mm"
   height="32.503654mm"
   viewBox="0 0 630.52141 115.17043"
   enable-background="new 0 0 717.17 540"
   xml:space="preserve"
   inkscape:version="1.3.2 (091e20ef0f, 2023-11-25)"
   sodipodi:docname="opencast-bugbash.svg"
   xmlns:inkscape="http://www.inkscape.org/namespaces/inkscape"
   xmlns:sodipodi="http://sodipodi.sourceforge.net/DTD/sodipodi-0.dtd"
   xmlns="http://www.w3.org/2000/svg"
   xmlns:svg="http://www.w3.org/2000/svg"
   xmlns:rdf="http://www.w3.org/1999/02/22-rdf-syntax-ns#"
   xmlns:cc="http://creativecommons.org/ns#"
   xmlns:dc="http://purl.org/dc/elements/1.1/"><metadata
   id="metadata51"><rdf:RDF><cc:Work
       rdf:about=""><dc:format>image/svg+xml</dc:format><dc:type
         rdf:resource="http://purl.org/dc/dcmitype/StillImage" /></cc:Work></rdf:RDF></metadata><defs
   id="defs49" /><sodipodi:namedview
   pagecolor="#000000"
   bordercolor="#666666"
   borderopacity="1"
   objecttolerance="10"
   gridtolerance="10"
   guidetolerance="10"
   inkscape:pageopacity="0"
   inkscape:pageshadow="2"
   inkscape:window-width="2279"
   inkscape:window-height="922"
   id="namedview47"
   showgrid="false"
   fit-margin-top="5"
   fit-margin-left="5"
   fit-margin-bottom="5"
   fit-margin-right="5"
   inkscape:zoom="1"
   inkscape:cx="329"
   inkscape:cy="63"
   inkscape:window-x="0"
   inkscape:window-y="0"
   inkscape:window-maximized="1"
   inkscape:current-layer="Ebene_1"
   units="mm"
   inkscape:pagecheckerboard="0"
   inkscape:document-units="mm"
   inkscape:showpageshadow="2"
   inkscape:deskcolor="#000000" /><g
   id="g3"
   style="fill:#000000;fill-opacity:1"
   transform="matrix(1.1241114,0,0,1.1241114,-189.54742,-271.85792)"><g
     id="g5"
     style="fill:#000000;fill-opacity:1"><path
       style="fill:#000000;fill-opacity:1"
       d="m 219.23899,257.72546 0.001,0.58345 -34.86996,34.85638 34.90819,34.84282 v 0.37499 l 0.1875,-0.18749 0.12088,0.12088 35.13763,-35.1512 -35.1771,-35.16352 -0.016,0.016 -0.29234,-0.29234 z m 28.15352,0.20846 0.0222,16.51664 0.17268,0.17269 v 0.0222 l 18.63457,18.63333 -18.80725,18.80725 0.0173,16.50553 0.17146,-0.17146 v 0.10362 l 35.13763,-35.1512 -0.0518,-0.0518 0.0518,-0.0518 -35.34856,-35.33499 z m 72.20199,16.2465 c -1.78847,0.0374 -3.57301,0.34057 -5.24857,0.88319 -5.81212,1.92127 -9.6997,7.60532 -10.64391,13.49208 -1.00035,5.97702 -0.32001,12.69391 3.68695,17.49973 2.86126,3.62624 7.46708,5.64618 12.05997,5.53844 3.69724,0.0383 7.43955,-1.11894 10.24303,-3.58086 4.29493,-3.62438 6.19657,-9.36277 6.20453,-14.85634 0.16567,-5.46563 -1.39919,-11.28717 -5.5335,-15.08577 -2.87648,-2.76943 -6.83387,-3.97285 -10.7685,-3.89047 z m 183.39383,0.007 c -3.93323,-0.0442 -8.08277,0.75109 -10.91281,3.6339 -2.91388,3.00152 -3.34765,7.8227 -1.73925,11.57028 1.54457,3.40377 5.01183,5.29586 8.30149,6.68437 2.12469,1.0487 4.7021,2.06857 5.59888,4.45172 0.60057,1.74353 -0.57646,3.63317 -2.28568,4.14457 -4.28556,1.40174 -9.14636,-0.17066 -12.37946,-3.16764 v 8.07083 c 0.22966,0.12812 0.46414,0.24772 0.70186,0.36018 4.03605,1.76778 8.63829,1.98967 12.94687,1.29148 3.55077,-0.53025 7.06756,-2.66144 8.3459,-6.15149 0.98226,-2.92198 1.02285,-6.30603 -0.33551,-9.12054 -1.81091,-3.59949 -5.70527,-5.29994 -9.17112,-6.90392 -1.81573,-0.95665 -4.11706,-1.96629 -4.67622,-4.14458 -0.4685,-1.9159 1.18536,-3.59331 2.95302,-3.97682 3.56971,-0.87438 7.50092,0.0677 10.46629,2.18824 v -7.54165 c -1.94706,-0.81239 -4.04827,-1.19326 -6.14656,-1.32232 -0.54862,-0.0369 -1.10581,-0.0603 -1.6677,-0.0666 z m -57.50847,0.001 c -5.24443,0 -9.50914,1.79985 -12.79638,5.39782 -3.28851,3.5986 -4.93279,8.28992 -4.93279,14.07306 0,5.43138 1.46288,9.77864 4.38635,13.04062 2.92283,3.26198 6.93659,4.89331 12.04271,4.89331 3.91374,0 7.08632,-0.63986 9.51402,-1.91687 v -7.44173 c -2.4277,1.54731 -5.10542,2.32022 -8.02888,2.32022 -3.06241,0 -5.49909,-1.03805 -7.30976,-3.1146 -1.8094,-2.07592 -2.7137,-4.86378 -2.7137,-8.3607 0,-3.64849 0.95786,-6.53995 2.87652,-8.67524 1.91867,-2.13528 4.44013,-3.20341 7.56633,-3.20341 2.84578,0 5.382,0.72347 7.60949,2.16973 v -7.84509 c -2.22812,-0.89112 -4.96393,-1.33712 -8.21391,-1.33712 z m -225.97196,0.31208 18.55808,18.55808 -18.66293,18.66293 -18.60372,-18.55808 z m 121.01178,0.29357 v 36.16761 h 7.49601 v -12.45964 h 3.57223 c 4.023,0 7.23549,-1.12169 9.64108,-3.36623 2.40622,-2.24518 3.608,-5.18316 3.608,-8.81587 0,-7.68412 -4.1917,-11.52587 -12.57559,-11.52587 z m 28.28797,0 v 36.16761 h 19.95441 v -6.60789 h -12.45963 v -8.27312 h 10.88322 v -6.60789 h -10.88322 v -8.04492 h 11.69486 v -6.63379 z m 24.39133,0 v 36.16884 h 7.07662 v -19.87547 c 0,-2.62284 -0.0619,-4.57288 -0.18503,-5.85051 h 0.0913 c 0.31009,0.67197 0.8668,1.67232 1.6714,3.00112 l 13.71411,22.72363 h 7.56385 v -36.16761 h -7.07785 v 20.00252 c 0,2.47191 0.0618,4.12799 0.18626,4.96733 h -0.0925 c -0.51093,-0.97449 -1.06703,-1.95901 -1.67017,-2.95055 l -13.20343,-22.0193 h -8.07453 z m 73.93259,0 -12.11425,36.16761 h 8.1214 l 2.34489,-8.04492 h 11.83302 l 2.36833,8.04492 h 8.1658 l -11.83301,-36.16761 z m 46.62033,0 v 6.63379 h 9.44495 v 29.53382 h 7.51698 v -29.53382 h 9.49182 10e-4 v -6.63379 h -26.45499 z m -165.73621,6.25511 h 2.94684 c 3.99206,0 5.9862,1.85874 5.9862,5.57544 0,3.7988 -1.99477,5.70003 -5.9862,5.70003 h -2.94684 z m -28.80235,0.15172 c 0.18612,-0.008 0.37292,-0.008 0.56125,0 0.60875,-10e-5 1.2194,0.059 1.81325,0.19489 3.48121,0.74389 5.50196,4.24534 6.06021,7.52562 0.63876,3.99683 0.64114,8.43096 -1.50487,12.00447 -1.48677,2.57327 -4.54648,3.98356 -7.47134,3.58086 -3.55247,-0.29975 -6.09331,-3.49763 -6.9027,-6.76701 -0.93637,-3.95463 -0.87612,-8.34514 0.95103,-12.04394 1.19246,-2.50172 3.70148,-4.37577 6.49317,-4.49489 z m 152.07145,0.0506 h 0.18626 c 0.10736,1.26122 0.29295,2.34458 0.55631,3.25276 l 3.57223,12.15742 h -8.51365 l 3.61786,-12.25734 c 0.30946,-1.04206 0.50331,-2.09309 0.58099,-3.15284 z"
       id="polygon7"
       inkscape:connector-curvature="0" /></g><g
     id="g9"
     style="fill:#000000;fill-opacity:1" /><g
     id="g13"
     style="fill:#000000;fill-opacity:1" /></g><g
   id="g35"
   style="fill:#000000;fill-opacity:1"
   transform="translate(-166.66499,-231.07595)" /><g
   id="g39"
   style="fill:#000000;fill-opacity:1"
   transform="translate(-166.66499,-231.07595)" /><g
   id="g43"
   style="fill:#000000;fill-opacity:1"
   transform="translate(-166.66499,-231.07595)" /><g
   aria-label="EDITOR"
   id="text824"
   style="font-weight:300;font-size:37.5px;line-height:125%;font-family:Comfortaa;-inkscape-font-specification:'Comfortaa Light';letter-spacing:0px;word-spacing:0px;stroke-width:0.9375px;fill:#000000"
   transform="translate(0.03541589,0.47772025)"><path
     style="font-size:38.6412px;fill:#000000;stroke-width:0.96603px"
     d="m 426.27066,77.263184 h 9.69894 c 5.17793,0 8.88748,-3.632273 8.88748,-8.771553 0,-3.980044 -2.31847,-6.684928 -5.83482,-7.650958 2.51168,-1.120595 4.25053,-3.477708 4.25053,-6.45308 0,-4.250533 -3.59363,-7.303187 -7.8828,-7.303187 h -9.4671 c -0.69554,0 -1.15923,0.463694 -1.15923,1.159236 v 27.860306 c 0,0.772824 0.61826,1.159236 1.507,1.159236 z m 0.81147,-17.427182 V 49.402878 h 8.30786 c 3.24586,0 5.56433,1.777495 5.56433,4.984715 0,3.284502 -2.31847,5.448409 -5.56433,5.448409 z m 0,15.10871 V 62.154474 h 8.88747 c 3.82548,0 6.56901,2.627602 6.56901,6.337157 0,3.786838 -2.74353,6.453081 -6.56901,6.453081 z m 35.35667,2.936731 c 6.80085,0 11.631,-4.327815 11.631,-10.471766 V 48.243642 c 0,-0.695542 -0.4637,-1.159236 -1.15924,-1.159236 -0.69554,0 -1.15923,0.463694 -1.15923,1.159236 v 19.166035 c 0,4.791509 -3.86412,8.153294 -9.31253,8.153294 -5.44841,0 -9.27389,-3.361785 -9.27389,-8.153294 V 48.243642 c 0,-0.695542 -0.4637,-1.159236 -1.15924,-1.159236 -0.69554,0 -1.15923,0.463694 -1.15923,1.159236 v 19.166035 c 0,6.143951 4.79151,10.471766 11.59236,10.471766 z m 32.92233,-0.231847 c 3.51635,0 6.95541,-0.772824 9.50573,-3.323144 0.27049,-0.270488 0.27049,-0.502335 0.27049,-0.811465 v -9.814865 c 0,-0.6569 -0.46369,-1.120595 -1.15924,-1.120595 h -7.65095 c -0.69555,0 -1.15924,0.425053 -1.15924,1.004671 0,0.61826 0.46369,1.081954 1.15924,1.081954 h 6.49172 v 8.269217 c -2.20255,1.622931 -4.67559,2.395755 -7.45775,2.395755 -7.0327,0 -12.79024,-5.950745 -12.79024,-13.17665 0,-6.994057 5.83482,-13.138008 12.79024,-13.138008 3.01401,0 5.68025,0.772824 7.76688,2.627601 0.34777,0.30913 0.6569,0.463695 0.96603,0.463695 1.08195,0 1.507,-1.391084 0.81146,-1.970702 -2.78216,-2.318472 -5.98938,-3.439066 -9.54437,-3.439066 -8.42379,0 -15.10871,7.071339 -15.10871,15.45648 0,8.423782 6.87813,15.495122 15.10871,15.495122 z m 17.58175,-0.386412 h 9.69894 c 5.17792,0 8.88748,-3.632273 8.88748,-8.771553 0,-3.980044 -2.31847,-6.684928 -5.83482,-7.650958 2.51168,-1.120595 4.25053,-3.477708 4.25053,-6.45308 0,-4.250533 -3.59363,-7.303187 -7.88281,-7.303187 h -9.46709 c -0.69554,0 -1.15924,0.463694 -1.15924,1.159236 v 27.860306 c 0,0.772824 0.61826,1.159236 1.50701,1.159236 z m 0.81147,-17.427182 V 49.402878 h 8.30785 c 3.24587,0 5.56434,1.777495 5.56434,4.984715 0,3.284502 -2.31847,5.448409 -5.56434,5.448409 z m 0,15.10871 V 62.154474 h 8.88747 c 3.82548,0 6.56901,2.627602 6.56901,6.337157 0,3.786838 -2.74353,6.453081 -6.56901,6.453081 z m 20.63434,2.318472 c 0.50233,0 0.88875,-0.193206 1.08195,-0.734183 l 2.85945,-6.839493 h 15.72697 l 2.85945,6.839493 c 0.23185,0.540977 0.57962,0.734183 1.08195,0.734183 0.85011,0 1.42973,-0.927389 1.04331,-1.661572 L 547.29485,47.895871 c -0.23185,-0.540977 -0.61826,-0.811465 -1.1206,-0.811465 -0.57961,0 -0.92738,0.309129 -1.12059,0.811465 l -11.70828,27.705741 c -0.34777,0.6569 0.0773,1.661572 1.04331,1.661572 z m 4.83015,-9.660301 6.95541,-16.692999 6.99406,16.692999 z m 33.34732,10.046713 c 5.64162,0 9.4671,-3.284502 9.4671,-8.694271 0,-4.598303 -2.70489,-7.612316 -9.35117,-8.732911 -5.062,-0.850106 -7.26455,-2.936731 -7.26455,-5.718898 0,-3.477708 2.55032,-5.48705 6.80085,-5.48705 3.63228,0 5.5257,1.777495 6.60765,3.361784 0.34777,0.502336 0.96603,0.734183 1.54565,0.502336 0.6569,-0.270489 0.8501,-1.004671 0.50233,-1.584289 -1.39108,-2.318473 -4.67558,-4.598303 -8.65563,-4.598303 -5.44841,0 -9.11932,3.014013 -9.11932,7.573675 0,4.17325 3.43907,7.303187 9.19661,8.114652 4.98471,0.695542 7.41911,3.168579 7.41911,6.569004 0,4.095968 -2.74353,6.375799 -7.14863,6.375799 -3.9414,0 -6.72356,-1.545648 -8.07601,-4.057327 -0.30913,-0.579618 -0.92739,-0.850106 -1.507,-0.6569 -0.69554,0.231847 -1.00467,0.850106 -0.69554,1.468366 1.70021,3.400425 5.37112,5.564333 10.27855,5.564333 z m 17.0021,-0.386412 c 0.6569,0 1.15924,-0.502336 1.15924,-1.159236 V 63.081863 h 19.51381 v 13.022085 c 0,0.6569 0.50233,1.159236 1.15923,1.159236 0.61826,0 1.15924,-0.502336 1.15924,-1.159236 V 48.243642 c 0,-0.656901 -0.54098,-1.159236 -1.15924,-1.159236 -0.6569,0 -1.15923,0.502335 -1.15923,1.159236 V 60.995238 H 590.7275 V 48.243642 c 0,-0.656901 -0.50234,-1.159236 -1.15924,-1.159236 -0.6569,0 -1.15923,0.502335 -1.15923,1.159236 v 27.860306 c 0,0.6569 0.50233,1.159236 1.15923,1.159236 z"
     id="text1"
     aria-label="BUGBASH" /></g>
</svg>
